<svg width="258" height="200" viewBox="0 0 258 200" fill="none" xmlns="http://www.w3.org/2000/svg">
<circle cx="127" cy="101" r="73" fill="url(#paint0_linear_0_1)"/>
<path d="M139.606 89.5366L149.307 99.0653L159 89.5286L149.299 79.9999L139.606 89.5366Z" fill="white"/>
<path d="M117.303 89.5461L127.272 99.3384L136.965 89.8017L126.996 80.0095L117.303 89.5461Z" fill="white"/>
<path d="M95 89.5553L115.857 110.042L125.55 100.505L104.693 80.0186L95 89.5553Z" fill="white"/>
<path d="M117.312 111.471L127.013 121L148.137 100.217L138.436 90.6879L117.312 111.471Z" fill="#30D59B"/>
<path d="M234.615 17.7655L245.32 22.4046L246.264 34.0335L238.13 39.8583L237.186 28.2294L226.481 23.5903L234.615 17.7655Z" fill="#004AD1"/>
<path opacity="0.75" d="M231.301 18.2929L242.006 22.932L242.95 34.5609L234.816 40.3857L233.872 28.7568L223.167 24.1176L231.301 18.2929Z" fill="#30D59B"/>
<path d="M219.249 30.2253L227.701 33.8878L228.446 43.0686L222.025 47.6671L221.279 38.4864L212.828 34.8239L219.249 30.2253Z" fill="#004AD1"/>
<path opacity="0.75" d="M216.633 30.6417L225.084 34.3042L225.83 43.485L219.408 48.0835L218.663 38.9028L210.211 35.2403L216.633 30.6417Z" fill="#30D59B"/>
<path d="M206.928 40.603L213.689 43.533L214.286 50.8776L209.148 54.5564L208.552 47.2119L201.791 44.2819L206.928 40.603Z" fill="#004AD1"/>
<path opacity="0.75" d="M204.835 40.9362L211.596 43.8662L212.192 51.2107L207.055 54.8896L206.459 47.545L199.697 44.615L204.835 40.9362Z" fill="#30D59B"/>
<path d="M245.991 168.891L246.085 180.558L235.835 186.131L227.215 181.053L237.465 175.48L237.371 163.813L245.991 168.891Z" fill="#004AD1"/>
<path opacity="0.75" d="M244.167 166.075L244.261 177.742L234.011 183.315L225.391 178.237L235.641 172.664L235.547 160.997L244.167 166.075Z" fill="#30D59B"/>
<path d="M228.376 159.888L228.45 169.099L220.358 173.499L213.553 169.49L221.645 165.09L221.571 155.879L228.376 159.888Z" fill="#004AD1"/>
<path opacity="0.75" d="M226.936 157.665L227.01 166.876L218.918 171.275L212.113 167.266L220.205 162.866L220.131 153.656L226.936 157.665Z" fill="#30D59B"/>
<path d="M213.898 152.826L213.957 160.194L207.483 163.714L202.039 160.507L208.513 156.987L208.454 149.619L213.898 152.826Z" fill="#004AD1"/>
<path opacity="0.75" d="M212.745 151.047L212.805 158.415L206.331 161.935L200.887 158.728L207.36 155.208L207.301 147.839L212.745 151.047Z" fill="#30D59B"/>
<path d="M19.3662 184.365L8.68764 179.664L7.80968 168.03L15.9768 162.252L16.8548 173.886L27.5333 178.586L19.3662 184.365Z" fill="#004AD1"/>
<path opacity="0.75" d="M22.6829 183.856L12.0044 179.156L11.1264 167.522L19.2936 161.744L20.1715 173.378L30.8501 178.078L22.6829 183.856Z" fill="#30D59B"/>
<path d="M34.8023 171.993L26.3719 168.282L25.6788 159.097L32.1265 154.535L32.8197 163.72L41.2501 167.431L34.8023 171.993Z" fill="#004AD1"/>
<path opacity="0.75" d="M37.421 171.591L28.9906 167.881L28.2975 158.696L34.7452 154.134L35.4383 163.319L43.8688 167.03L37.421 171.591Z" fill="#30D59B"/>
<path d="M47.1827 161.686L40.4383 158.717L39.8838 151.369L45.042 147.72L45.5965 155.068L52.3409 158.036L47.1827 161.686Z" fill="#004AD1"/>
<path opacity="0.75" d="M49.2779 161.365L42.5335 158.396L41.979 151.048L47.1372 147.399L47.6917 154.747L54.4361 157.715L49.2779 161.365Z" fill="#30D59B"/>
<path d="M11.4213 30.0746L11.9929 18.4215L22.5441 13.442L30.8605 19.0034L20.3093 23.9829L19.7376 35.6361L11.4213 30.0746Z" fill="#004AD1"/>
<path opacity="0.75" d="M13.0819 32.9903L13.6536 21.3371L24.2048 16.3576L32.5211 21.9191L21.9699 26.8985L21.3983 38.5517L13.0819 32.9903Z" fill="#30D59B"/>
<path d="M28.4943 40.0672L28.9456 30.8673L37.2755 26.9362L43.841 31.3268L35.5111 35.2579L35.0598 44.4578L28.4943 40.0672Z" fill="#004AD1"/>
<path opacity="0.75" d="M29.8054 42.3693L30.2567 33.1695L38.5866 29.2383L45.1521 33.6289L36.8222 37.5601L36.3709 46.7599L29.8054 42.3693Z" fill="#30D59B"/>
<path d="M42.5465 47.944L42.9075 40.5841L49.5714 37.4392L54.8238 40.9517L48.1599 44.0966L47.7989 51.4565L42.5465 47.944Z" fill="#004AD1"/>
<path opacity="0.75" d="M43.5955 49.786L43.9565 42.426L50.6204 39.2811L55.8729 42.7936L49.2089 45.9385L48.8479 53.2984L43.5955 49.786Z" fill="#30D59B"/>
<defs>
<linearGradient id="paint0_linear_0_1" x1="195" y1="28" x2="68" y2="164.5" gradientUnits="userSpaceOnUse">
<stop stop-color="#00379C"/>
<stop offset="0.786458" stop-color="#004AD1"/>
</linearGradient>
</defs>
</svg>
